<?xml version="1.0" encoding="utf-8"?>
<!-- Generator: Adobe Illustrator 22.0.1, SVG Export Plug-In . SVG Version: 6.00 Build 0)  -->
<svg version="1.1" id="圖層_1" xmlns="http://www.w3.org/2000/svg" xmlns:xlink="http://www.w3.org/1999/xlink" x="0px" y="0px"
	 viewBox="0 0 71 71" style="enable-background:new 0 0 71 71;" xml:space="preserve">
<style type="text/css">
	.st0{fill:#919191;}
</style>
<g>
	<path class="st0" d="M61.5,69.7L1.3,9.4c-1.6-1.6-1.6-4.1,0-5.7L3,2c1.6-1.6,4.1-1.6,5.7,0L69,62.3c1.6,1.6,1.6,4.1,0,5.7l-1.7,1.7
		C65.6,71.2,63.1,71.2,61.5,69.7z"/>
	<path class="st0" d="M1.3,62.3L61.5,2c1.6-1.6,4.1-1.6,5.7,0l1.7,1.7c1.6,1.6,1.6,4.1,0,5.7L8.7,69.7c-1.6,1.6-4.1,1.6-5.7,0
		L1.3,68C-0.3,66.4-0.3,63.8,1.3,62.3z"/>
</g>
</svg>
