<?xml version="1.0" encoding="utf-8"?>
<!-- Generator: Adobe Illustrator 22.0.1, SVG Export Plug-In . SVG Version: 6.00 Build 0)  -->
<svg version="1.1" id="圖層_1" xmlns="http://www.w3.org/2000/svg" xmlns:xlink="http://www.w3.org/1999/xlink" x="0px" y="0px"
	 viewBox="0 0 846.9 272" style="enable-background:new 0 0 846.9 272;" xml:space="preserve">
<style type="text/css">
	.st0{fill:#2CA139;}
</style>
<g>
	<polygon class="st0" points="38.6,246.5 38.6,226.5 40.8,226.5 40.8,235.1 54.7,235.1 54.7,226.5 56.9,226.5 56.9,246.5 
		54.7,246.5 54.7,236.7 40.8,236.7 40.8,246.5 	"/>
	<polygon class="st0" points="72.4,246.5 72.4,226.5 88,226.5 88,228.1 74.6,228.1 74.6,235.4 86.7,235.4 86.7,237 74.6,237 
		74.6,244.9 88.4,244.9 88.4,246.5 	"/>
	<path class="st0" d="M102.6,246.5l9.3-20h2.5l9,20h-2.3l-2.7-6.3h-10.7l-2.8,6.3H102.6z M108.4,238.6h9.2l-4.6-10.5L108.4,238.6z"
		/>
	<polygon class="st0" points="138.2,246.5 138.2,226.5 140.4,226.5 140.4,244.9 153,244.9 153,246.5 	"/>
	<polygon class="st0" points="169.7,226.5 186.8,226.5 186.8,228.1 179.4,228.1 179.4,246.5 177.2,246.5 177.2,228.1 169.7,228.1 	
		"/>
	<polygon class="st0" points="201.7,246.5 201.7,226.5 204,226.5 204,235.1 217.9,235.1 217.9,226.5 220.1,226.5 220.1,246.5 
		217.9,246.5 217.9,236.7 204,236.7 204,246.5 	"/>
	<polygon class="st0" points="52.9,38.9 10.7,89.9 6.4,116.2 38.8,84.5 19.2,205.7 40.5,201.8 67,36.3 	"/>
	<path class="st0" d="M244.1,85.6L256.7,6l-49.4,8.9l1.4-8.9l-28.2,5.2l-1.5,8.9l-49.3,9l-2.8,17.8l49.4-9.2l-2.1,13.3l-49.4,9.2
		L122,78l49.4-9l-2,12.7l-49.5,9.7l-2.8,17.9l49.5-9.2l-1.7,8.9l-49.2,9l-3.1,17.8l50.1-9.5l-2.4,13.8l-49.4,9l-2.8,17.7l49.5-9.1
		l-2.9,17.8l28.3-5.2l2.9-17.8l63.4-11.7l2.8-17.8L188.4,135l1.8-13.1l63.8-11.7l2.6-18.1l-63.4,11.7l1.6-8.9L244.1,85.6z
		 M204.5,32.6l21.1-3.8l-2.1,13.2l-21.1,3.8L204.5,32.6z M199.6,63.8l21.2-3.9l-2.1,13.2l-21.2,4.1L199.6,63.8z"/>
	<polygon class="st0" points="93.9,169.5 106.3,89.4 116.3,27.3 74,35.1 70.5,57.3 91.6,53.4 85.3,93.4 64.2,97.3 60.7,119.5 
		81.9,115.6 74.1,164.5 54.4,159.5 50.9,181.7 149.7,206.7 240.2,190.3 243.7,167.9 153.1,184.5 	"/>
	<path class="st0" d="M439.1,76.9l4.7-31.3L387.6,56l1.4-8.8l-28.2,5.1l-1.6,8.9l-42.1,7.3l-2.9,18.6l42.3-7.8l-2,12.9l-42.4,8.2
		l-2.8,17.7l42.3-7.8l-2.1,13.4l-42.3,7.5l-2.8,17.8l42.4-7.8l-14.2,85.3l28.3-5.2l14.2-85.4l56.4-10.2l4.7-30.9l21.3-3.9l2.8-17.7
		L439.1,76.9z M406.1,113l-28.4,5.1l2.1-13.4l27.9-4.6L406.1,113z M410.9,82.1l-28.3,5.4l2.1-13.3l28.3-5.7L410.9,82.1z"/>
	<polygon class="st0" points="392.6,24.9 393.9,16.1 365.8,21.2 364.4,30.1 279.7,45.6 246,257.3 274.4,252.1 305.1,58.2 
		446.2,32.3 448.9,14.5 	"/>
	<polygon class="st0" points="382.6,163.8 377.7,194.9 441.2,183.1 444,165.4 401.7,173.1 403.7,160.1 446.1,152.1 448.9,134.3 
		385.3,146 	"/>
	<polygon class="st0" points="328.3,186.1 333.2,155 298.8,161.3 296,179 309.2,176.8 307.2,189.7 293.9,192.3 291.1,210.1 
		325.6,203.9 	"/>
	<path class="st0" d="M486.9,208c27-0.7,49.9,11.1,64.1,11.1c14.9,0,27-4.9,46.5-26.6c1.3-1.4,4.1-4.9,6.1-3.5c2,1.4,0,3.5-1.3,5.6
		c-20.2,25.9-42.4,55.2-70.1,55.3c-16.2,0-29.7-5.5-40.5-10.4c-10.8-4.9-29-12.5-39.8-12.5c-18.2,0-35.8,4.9-44.5,11.2
		c-8.8,6.3-9.4,11.2-11.5,11.9c-2,0.7-6.8,0-4.7-5.6c1.3-3.5,7.4-8.4,10.8-10.5c18.9-13.3,49.9-28,76.9-41.3
		c47.9-23.8,91-62.3,100.4-93.1c4.7-16.1-4.7-26.5-19.6-27.2c-15.5-0.7-32.4,4.9-47.2,16.1c-11.4,8.4-20.9,21-22.9,33.6
		c-2.7,14.7,8.8,23.1,20.9,20.3c1.3,0,2.7-0.7,3.3,0.7c0.7,1.4-2,3.5-4,4.2c-4,2.1-10.8,3.5-16.9,2.8c-18.9-1.4-22.3-14-20.9-23.7
		c2-14.7,15.5-29.4,37-44.1c18.2-13.3,48.6-25.9,74.9-25.9c30.3,0,57.4,12.5,50,47.5c-6.7,30.1-36.4,52.5-74.2,69.3
		c-39.1,17.5-80.9,29.5-102.5,37.9C465.9,209.4,478.7,208,486.9,208"/>
	<path class="st0" d="M688.2,250.2c-41.1,0-53.3-26.8-49.5-56.4c3.2-25.4,19.3-57.1,39.2-78.2c34.7-36.6,73.9-59.2,106.6-59.2
		c9,0,14.1,1.4,13.5,3.5c-0.6,0.7-7.1,3.5-16.7,10.6c-20.6,15.5-35.3,31.7-54.6,58.5c-21.2,28.2-39.8,60.6-43.7,83.1
		c-2.6,15.5,0.6,26.1,10.9,28.2c16.7,4.2,45.6-21.8,69.4-55.6c20.6-28.9,41.8-67.6,48.2-94.4c2.6-10.6,0.6-20.4-1.9-24
		c-3.2-4.9-6.4-5.6-9-6.3c0-1.4,1.3-2.8,4.5-3.5c23.8-3.5,37.3,21.8,30.8,53.5c-5.8,29.6-19.9,56.4-46.3,87.4
		c-29.5,34.5-66.2,52.8-100.9,52.8H688.2z"/>
	<path class="st0" d="M613.6,222.8c10.7,0,19.4-8.7,19.4-19.4c0-10.7-8.7-19.4-19.4-19.4c-10.7,0-19.4,8.7-19.4,19.4
		C594.2,214.1,602.9,222.8,613.6,222.8"/>
</g>
</svg>
